<?xml version="1.0"?>
<svg xmlns="http://www.w3.org/2000/svg" xmlns:xlink="http://www.w3.org/1999/xlink" xmlns:svgjs="http://svgjs.com/svgjs" version="1.1" width="512" height="512" x="0" y="0" viewBox="0 0 512 512" style="enable-background:new 0 0 512 512" xml:space="preserve" class=""><g><linearGradient xmlns="http://www.w3.org/2000/svg" id="New_Gradient_Swatch_16" gradientUnits="userSpaceOnUse" x1="86.957" x2="424.778" y1="453.182" y2="115.361"><stop offset=".004" stop-color="#dd888a"/><stop offset="1" stop-color="#ecbbbc"/></linearGradient><g xmlns="http://www.w3.org/2000/svg" id="_26-do_not_disturb" data-name="26-do not disturb"><g id="gradient"><path d="m255.74 4c-70.293.129-129.823 52.639-138.625 122.283a12.323 12.323 0 0 0 .96 6.709 12.015 12.015 0 0 0 10.919 7.008h48.606a11.982 11.982 0 0 0 11.754-9.582 68.333 68.333 0 0 1 65.654-54.411c.326-.005.646-.007.971-.007a68.2 68.2 0 0 1 68 66.352 67.519 67.519 0 0 1 -19.189 49.013 69.178 69.178 0 0 1 -49.702 20.635h-43.088a96 96 0 0 0 -96 96v156a44 44 0 0 0 44 44h192a44 44 0 0 0 44-44v-318.475c0-77.669-62.591-141.667-140.26-141.525z" fill="url(#New_Gradient_Swatch_16)" data-original="url(#New_Gradient_Swatch_16)" style=""/><g fill="#faeeee"><path d="m304 460h-48a12 12 0 0 1 -9.1-19.822l24.222-28.178h-15.122a12 12 0 0 1 0-24h41.261a12 12 0 0 1 9.1 19.822l-24.222 28.178h21.861a12 12 0 0 1 0 24z" fill="#faeeee" data-original="#faeeee" style="" class=""/><path d="m224 380h-48a12 12 0 0 1 -9.1-19.822l24.222-28.178h-15.122a12 12 0 0 1 0-24h41.261a12 12 0 0 1 9.1 19.822l-24.222 28.178h21.861a12 12 0 0 1 0 24z" fill="#faeeee" data-original="#faeeee" style="" class=""/><path d="m336 348h-64a12 12 0 0 1 -8.485-20.485l43.514-43.515h-35.029a12 12 0 0 1 0-24h64a12 12 0 0 1 8.485 20.485l-43.514 43.515h35.029a12 12 0 0 1 0 24z" fill="#faeeee" data-original="#faeeee" style="" class=""/></g></g></g></g></svg>
